<svg width="112" height="28" viewBox="0 0 112 28" fill="none" xmlns="http://www.w3.org/2000/svg">
<path d="M8.89201 27.684C11.172 27.684 13.008 27.12 14.4 25.992C15.792 24.864 16.488 23.388 16.488 21.564C16.488 20.148 16.056 18.96 15.192 18C14.328 17.016 13.08 16.284 11.448 15.804L8.31601 14.868C6.90001 14.46 6.19201 13.872 6.19201 13.104C6.19201 12.6 6.38401 12.204 6.76801 11.916C7.17601 11.628 7.72801 11.484 8.42401 11.484C9.38401 11.484 10.236 11.736 10.98 12.24C11.748 12.72 12.276 13.368 12.564 14.184L16.56 12.312C15.96 10.68 14.928 9.41995 13.464 8.53195C12.024 7.61995 10.344 7.16395 8.42401 7.16395C6.96001 7.16395 5.66401 7.42795 4.53601 7.95595C3.40801 8.45995 2.53201 9.16795 1.90801 10.08C1.28401 10.992 0.972008 12.06 0.972008 13.284C0.972008 14.676 1.40401 15.888 2.26801 16.92C3.13201 17.928 4.36801 18.66 5.97601 19.116L9.32401 20.052C10.62 20.412 11.268 20.988 11.268 21.78C11.268 22.956 10.476 23.544 8.89201 23.544C7.83601 23.544 6.87601 23.244 6.01201 22.644C5.14801 22.044 4.46401 21.216 3.96001 20.16L7.87526e-06 22.032C0.576008 23.76 1.65601 25.14 3.24001 26.172C4.84801 27.18 6.73201 27.684 8.89201 27.684ZM19.7154 27.252H25.1154V21.24L27.2754 18.864L32.2794 27.252H38.3994L31.3074 15.516L38.4354 7.59595H31.7754L25.1154 14.688V-4.79221e-05H19.7154V27.252ZM40.8091 5.83195H46.2091V0.431951H40.8091V5.83195ZM40.8091 27.252H46.2091V7.59595H40.8091V27.252ZM50.1607 27.252H55.5607V-4.79221e-05H50.1607V27.252ZM59.5122 27.252H64.9122V-4.79221e-05H59.5122V27.252ZM78.3318 27.684C80.3478 27.684 82.1118 27.252 83.6238 26.388C85.1358 25.5 86.1918 24.336 86.7918 22.896L82.4718 20.844C82.0878 21.516 81.5478 22.044 80.8518 22.428C80.1798 22.812 79.3638 23.004 78.4038 23.004C77.0838 23.004 76.0038 22.632 75.1638 21.888C74.3238 21.144 73.8318 20.16 73.6878 18.936H87.4398C87.5358 18.672 87.5958 18.36 87.6198 18C87.6678 17.616 87.6918 17.232 87.6918 16.848C87.6918 15.024 87.3078 13.392 86.5398 11.952C85.7958 10.488 84.7038 9.32395 83.2638 8.45995C81.8238 7.59595 80.0598 7.16395 77.9718 7.16395C76.0998 7.16395 74.4198 7.60795 72.9318 8.49595C71.4438 9.38395 70.2558 10.596 69.3678 12.132C68.5038 13.668 68.0718 15.42 68.0718 17.388C68.0718 19.284 68.4918 21.012 69.3318 22.572C70.1718 24.132 71.3598 25.38 72.8958 26.316C74.4318 27.228 76.2438 27.684 78.3318 27.684ZM77.9718 11.484C79.0758 11.484 79.9878 11.808 80.7078 12.456C81.4278 13.104 81.8478 13.944 81.9678 14.976H73.7958C74.0598 13.848 74.5518 12.984 75.2718 12.384C76.0158 11.784 76.9158 11.484 77.9718 11.484ZM100.124 27.684C101.324 27.684 102.44 27.492 103.472 27.108C104.528 26.7 105.404 26.124 106.1 25.38V27.252H111.14V-4.79221e-05H105.74V9.25195C104.348 7.85995 102.464 7.16395 100.088 7.16395C98.2156 7.16395 96.5236 7.61995 95.0116 8.53195C93.4996 9.44395 92.2996 10.68 91.4116 12.24C90.5236 13.776 90.0796 15.504 90.0796 17.424C90.0796 19.32 90.5116 21.048 91.3756 22.608C92.2636 24.168 93.4636 25.404 94.9756 26.316C96.4876 27.228 98.2036 27.684 100.124 27.684ZM100.772 22.824C99.2836 22.824 98.0596 22.32 97.0996 21.312C96.1396 20.304 95.6596 19.008 95.6596 17.424C95.6596 15.864 96.1396 14.58 97.0996 13.572C98.0596 12.54 99.2836 12.024 100.772 12.024C102.236 12.024 103.424 12.528 104.336 13.536C105.272 14.544 105.74 15.84 105.74 17.424C105.74 19.032 105.272 20.34 104.336 21.348C103.424 22.332 102.236 22.824 100.772 22.824Z" fill="#13183F"/>
</svg>
